# xmcd
#
# Track frame offsets:
#	150
#	18060
#	39385
#	51090
#	70222
#	79398
#	102123
#	118621
#	134398
#	144678
#
# Disc length: 2085 seconds
#
# Revision: 3
# Processed by: cddbd v1.5.2PL0 Copyright (c) Steve Scherf et al.
# Submitted via: audiograbber 1.83.01
#
DISCID=8408230a
DTITLE=Various Artist - New Country - Volume 5 - Special 1
DYEAR=1998
DGENRE=Country
TTITLE0=Dolly Parton - Today I Started Loving You Again
TTITLE1=Tanya Tucker - All I Have To Offer You Is Love
TTITLE2=Rich McCready - Let Me Take That Ol' Heartache
TTITLE3=Seconds Flat - Me And My Friend Heartache
TTITLE4=Patsy Cline - Bill Bailey, Won't You Please Come Home
TTITLE5=Kris Tyler - Keeping Your Kisses
TTITLE6=Kate MacKenzie - Carolina
TTITLE7=The Kinleys - Please
TTITLE8=Tim Carroll - Open Flame
TTITLE9=Buddy Miller - Love Snuck Up
EXTD=
EXTT0=
EXTT1=
EXTT2=
EXTT3=
EXTT4=
EXTT5=
EXTT6=
EXTT7=
EXTT8=
EXTT9=
PLAYORDER=
